# xmcd
#
# Track frame offsets: 
#        150
#        23787
#        39965
#        53532
#        67665
#        78752
#        90042
#        108507
#        122077
#        135622
#        148960
#        160727
#        178835
#        191432
#        204227
#
# Disc length: 2934 seconds
#
# Revision: 5
# Processed by: cddbd v1.5.2PL0 Copyright (c) Steve Scherf et al.
# Submitted via: ExactAudioCopy v0.99pb5
#
DISCID=b50b740f
DTITLE=Various Artist - Classic Country - TL 626-09 - Golden '70s - CD 2
DYEAR=2000
DGENRE=Country
TTITLE0=Dr. Hook - When you're in love with a beautiful woman
TTITLE1=Willie Nelson - Blue skies
TTITLE2=Mac Davis - Baby, don't get hooked on me
TTITLE3=Barbara Mandrell - (If loving you is wrong) I don't want to be
TTITLE3=right
TTITLE4=Conway Twitty - Hello darlin'
TTITLE5=Don Williams - It must be love
TTITLE6=Bellamy Brothers - Satin sheets
TTITLE7=Dave Dudley - The pool shark
TTITLE8=Waylon Jennings - Amanda
TTITLE9=Crystal Gayle - Why have you left the one you left me for
TTITLE10=Sonny James - It's just a matter of time
TTITLE11=Hank Williams Jr. - Family tradition
TTITLE12=Porter Wagoner and Dolly Parton - Please don't stop loving me
TTITLE13=Mickey Gilley - Room full of roses
TTITLE14=Ray Stevens - Everything is beautiful
EXTD=Time-Life
EXTT0=CD #B50B740F371209D1
EXTT1=
EXTT2=
EXTT3=
EXTT4=
EXTT5=
EXTT6=
EXTT7=
EXTT8=
EXTT9=
EXTT10=
EXTT11=
EXTT12=
EXTT13=
EXTT14=
PLAYORDER=
